<svg xmlns="http://www.w3.org/2000/svg" width="17" height="17" viewBox="0 0 17 17">
    <g fill="none" fill-rule="evenodd">
        <g>
            <g transform="translate(-39 -794) translate(39 794)">
                <circle cx="8.003" cy="8.72" r="7.253" stroke="#007AFF" stroke-width="1.5"/>
                <path fill="#007AFF" fill-rule="nonzero" d="M7.484 10.636c.179 0 .334-.052.466-.156.132-.104.196-.245.192-.424l-.005-.362c-.004-.13.048-.263.156-.4.108-.135.243-.259.407-.37.164-.112.341-.245.533-.399.191-.154.369-.312.532-.474.164-.162.3-.365.41-.61.11-.246.165-.51.165-.792 0-.369-.066-.693-.198-.974-.132-.28-.315-.504-.547-.672-.232-.167-.495-.291-.79-.373-.293-.082-.614-.123-.964-.123-.591 0-1.156.076-1.695.229-.16.048-.28.126-.36.234-.08.108-.12.225-.12.351 0 .175.05.32.148.435.098.116.226.173.382.173.078 0 .273-.023.585-.07.313-.046.549-.07.709-.07.353 0 .642.076.867.227.225.15.337.402.337.755 0 .16-.034.315-.103.466-.069.15-.159.287-.27.41-.112.123-.235.244-.371.365s-.27.24-.402.36c-.132.119-.253.24-.365.362-.112.123-.2.259-.268.407-.067.15-.098.303-.095.463l.006.452c.007.186.075.33.204.43.128.1.28.15.454.15zm.011 2.298c.235 0 .428-.077.58-.232.153-.154.229-.34.229-.56 0-.223-.078-.41-.234-.558-.156-.149-.348-.223-.575-.223-.238 0-.431.077-.58.232-.148.154-.223.337-.223.549 0 .22.076.406.226.56.15.155.343.232.577.232z"/>
            </g>
        </g>
    </g>
</svg>
