<svg xmlns="http://www.w3.org/2000/svg" width="16" height="16" viewBox="0 0 16 16">
    <g fill="none" fill-rule="evenodd">
        <g>
            <g transform="translate(-39 -834) translate(39 834)">
                <circle cx="8" cy="8" r="7.25" stroke="#007AFF" stroke-width="1.5"/>
                <path fill="#007AFF" fill-rule="nonzero" d="M7.855 4.684c.254 0 .46-.078.619-.234.158-.156.237-.36.237-.61 0-.252-.078-.455-.234-.609C8.32 3.077 8.115 3 7.86 3c-.257 0-.465.077-.624.231C7.08 3.385 7 3.588 7 3.84c0 .252.08.455.237.611.159.156.365.234.618.234zm0 7.316c.215 0 .392-.075.53-.225.14-.15.209-.359.209-.626v-4.39c0-.273-.07-.483-.208-.633-.139-.15-.316-.225-.53-.225-.215 0-.391.075-.528.225-.137.15-.205.36-.205.632v4.39c0 .272.068.482.205.63.137.148.313.222.527.222z"/>
            </g>
        </g>
    </g>
</svg>
